<svg width="512" height="512" viewBox="0 0 512 512" fill="none" xmlns="http://www.w3.org/2000/svg">
<rect width="512" height="512" fill="#1E1E1E"/>
<rect width="512" height="512" fill="white"/>
<path d="M115 153C115 136.431 128.431 123 145 123H296C312.569 123 326 136.431 326 153V395C326 411.569 312.569 425 296 425H145C128.431 425 115 411.569 115 395V153Z" fill="url(#paint0_linear_0_1)"/>
<g filter="url(#filter0_d_0_1)">
<path d="M175 124C175 107.431 188.431 94 205 94H356C372.569 94 386 107.431 386 124V366C386 382.569 372.569 396 356 396H205C188.431 396 175 382.569 175 366V124Z" fill="url(#paint1_linear_0_1)"/>
</g>
<rect x="203" y="157" width="132" height="20" rx="10" fill="white"/>
<rect x="203" y="188" width="97" height="20" rx="10" fill="white"/>
<defs>
<filter id="filter0_d_0_1" x="150" y="79" width="251" height="342" filterUnits="userSpaceOnUse" color-interpolation-filters="sRGB">
<feFlood flood-opacity="0" result="BackgroundImageFix"/>
<feColorMatrix in="SourceAlpha" type="matrix" values="0 0 0 0 0 0 0 0 0 0 0 0 0 0 0 0 0 0 127 0" result="hardAlpha"/>
<feOffset dx="-5" dy="5"/>
<feGaussianBlur stdDeviation="10"/>
<feComposite in2="hardAlpha" operator="out"/>
<feColorMatrix type="matrix" values="0 0 0 0 0 0 0 0 0 0 0 0 0 0 0 0 0 0 0.25 0"/>
<feBlend mode="normal" in2="BackgroundImageFix" result="effect1_dropShadow_0_1"/>
<feBlend mode="normal" in="SourceGraphic" in2="effect1_dropShadow_0_1" result="shape"/>
</filter>
<linearGradient id="paint0_linear_0_1" x1="254.5" y1="51" x2="320" y2="353" gradientUnits="userSpaceOnUse">
<stop stop-color="#E365D6"/>
<stop offset="0.539836" stop-color="#6A2FFF"/>
<stop offset="1" stop-color="#FF87F3"/>
</linearGradient>
<linearGradient id="paint1_linear_0_1" x1="280.5" y1="94" x2="346" y2="396" gradientUnits="userSpaceOnUse">
<stop stop-color="#FF00E5"/>
<stop offset="0.322765" stop-color="#6A2FFF"/>
<stop offset="1" stop-color="#FF5DEF"/>
</linearGradient>
</defs>
</svg>
